<svg width="151" height="206" viewBox="0 0 151 206" fill="none" xmlns="http://www.w3.org/2000/svg">
<path d="M113.101 40.1182V185.456H10.6006L10.6006 40.125V40.1284C12.6096 41.2901 14.9432 41.9563 17.4339 41.9563C18.7323 41.9563 19.9657 41.7172 21.1547 41.3789C22.4633 47.5631 27.9436 52.2063 34.5173 52.2063C35.1323 52.2063 35.7199 52.1038 36.3144 52.0252C38.6548 56.1902 43.0658 59.0397 48.1839 59.0397C52.2908 59.0397 55.9295 57.1913 58.4339 54.3247C60.9383 57.1913 64.5771 59.0397 68.6839 59.0397C68.8445 59.0397 68.9948 58.9987 69.152 58.9918C69.644 60.9188 70.546 62.6613 71.7589 64.1647C69.8661 66.5119 68.6839 69.4571 68.6839 72.7063C68.6839 80.2537 74.8032 86.373 82.3506 86.373C89.898 86.373 96.0173 80.2537 96.0173 72.7063C96.0173 69.4571 94.8351 66.5119 92.9388 64.1647C94.8351 61.8174 96.0173 58.8722 96.0173 55.623C96.0173 53.9215 95.6687 52.3122 95.1016 50.8089C98.8497 48.9947 101.665 45.5609 102.55 41.3789C103.736 41.7172 104.969 41.9563 106.267 41.9563C108.758 41.9563 111.095 41.2901 113.104 40.125L113.101 40.1182Z" fill="#F2C351"/>
<path d="M113.101 205.956H10.6006C4.93917 205.956 0.350586 201.368 0.350586 195.706C0.350586 190.045 4.93917 185.456 10.6006 185.456H113.101C118.762 185.456 123.351 190.045 123.351 195.706C123.351 201.368 118.762 205.956 113.101 205.956Z" fill="#D5CEC2"/>
<path d="M113.101 141.04H130.184C133.959 141.04 137.017 137.982 137.017 134.206V76.1229C137.017 72.3475 133.959 69.2896 130.184 69.2896H113.101V55.6229H130.184C141.507 55.6229 150.684 64.8001 150.684 76.1229V134.206C150.684 145.529 141.507 154.706 130.184 154.706H113.101V141.04Z" fill="#D5CEC2"/>
<path d="M108.683 14.8655C106.623 12.959 103.978 11.7154 101.043 11.3669C98.6994 7.21222 94.2953 4.37297 89.184 4.37297C86.8197 4.37297 84.6296 5.02897 82.6923 6.08472C80.1879 2.98238 76.3988 0.956299 72.1007 0.956299C69.5997 0.956299 67.2832 1.67722 65.2673 2.85255C63.2515 1.67722 60.935 0.956299 58.434 0.956299C55.1847 0.956299 52.2396 2.13847 49.8923 4.03472C47.5451 2.13847 44.5999 0.956299 41.3507 0.956299C36.2325 0.956299 31.8216 3.8058 29.4812 7.97072C28.8867 7.89213 28.299 7.78963 27.684 7.78963C22.5727 7.78963 18.1686 10.6289 15.8248 14.7835C9.04608 15.5899 3.76733 21.2923 3.76733 28.2896C3.76733 35.837 9.88658 41.9563 17.434 41.9563C18.7323 41.9563 19.9658 41.7171 21.1548 41.3789C22.4633 47.563 27.9437 52.2063 34.5173 52.2063C35.1323 52.2063 35.72 52.1038 36.3145 52.0252C38.6549 56.1901 43.0658 59.0396 48.184 59.0396C52.2908 59.0396 55.9296 57.1912 58.434 54.3246C60.9384 57.1912 64.5772 59.0396 68.684 59.0396C68.8446 59.0396 68.9949 58.9986 69.1521 58.9918C69.6441 60.9188 70.5461 62.6613 71.759 64.1646C69.8662 66.5119 68.684 69.457 68.684 72.7063C68.684 80.2537 74.8032 86.373 82.3507 86.373C89.8981 86.373 96.0173 80.2537 96.0173 72.7063C96.0173 69.457 94.8352 66.5119 92.9389 64.1646C94.8352 61.8174 96.0173 58.8722 96.0173 55.623C96.0173 53.9215 95.6688 52.3122 95.1017 50.8089C98.8497 48.9946 101.665 45.5609 102.55 41.3789C103.736 41.7171 104.969 41.9563 106.267 41.9563C113.815 41.9563 119.934 35.837 119.934 28.2896C119.934 21.569 115.075 16.0101 108.683 14.8655V14.8655Z" fill="#E7E4DD"/>
<path d="M31.1007 171.79C27.3253 171.79 24.2673 168.732 24.2673 164.956V103.456C24.2673 99.6808 27.3253 96.6229 31.1007 96.6229C34.8761 96.6229 37.934 99.6808 37.934 103.456V164.956C37.934 168.732 34.8761 171.79 31.1007 171.79Z" fill="#F7D881"/>
<path d="M61.8507 171.79C58.0753 171.79 55.0173 168.732 55.0173 164.956V103.456C55.0173 99.6808 58.0753 96.6229 61.8507 96.6229C65.6261 96.6229 68.684 99.6808 68.684 103.456V164.956C68.684 168.732 65.6261 171.79 61.8507 171.79Z" fill="#F7D881"/>
<path d="M92.6007 171.79C88.8253 171.79 85.7673 168.732 85.7673 164.956V103.456C85.7673 99.6808 88.8253 96.6229 92.6007 96.6229C96.3761 96.6229 99.434 99.6808 99.434 103.456V164.956C99.434 168.732 96.3761 171.79 92.6007 171.79Z" fill="#F7D881"/>
</svg>
